<svg width="1433" height="737.9999999999999" xmlns="http://www.w3.org/2000/svg" data-name="Layer 1">

 <g>
  <title>Layer 1</title>
  <path stroke="null" id="svg_4" fill="#e6e7e8" d="m1396.5502,539.92292c-62.10598,88.80603 -207.03965,151.08908 -375.93132,151.08908c-136.80148,0 -257.89562,-40.86445 -331.97465,-103.60104c15.03153,-2.58463 30.19351,-3.75095 45.75851,-1.90787c37.32995,4.4277 64.55988,25.2775 101.55787,30.64114c31.98361,4.63649 65.34224,-3.18219 93.63904,-13.3479c28.30866,-10.17292 54.50724,-22.93766 85.44758,-29.7124c20.52021,-4.4925 50.5004,-3.24698 55.52672,9.64735c2.28792,5.882 -0.68758,13.80147 8.08481,16.66688q104.2903,-22.84047 208.58066,-45.68813c22.5355,-4.93167 45.154,-9.88494 68.59046,-12.91593c13.32449,-1.72072 27.70406,-2.70705 40.72033,-0.87118z"/>
  <path stroke="null" id="svg_5" fill="#f2f2f2" d="m798.26021,396.34558q0.28965,-0.15879 0.56805,-0.32844q0.71339,-3.41662 1.42681,-6.83323c2.79952,2.90777 8.30458,2.35899 10.47494,-1.04428a177.89525,177.89525 0 0 0 -29.52072,-44.23997a15.94336,15.94336 0 0 1 -0.22918,-21.14877q0.06883,-0.08021 0.13643,-0.16164a75.48244,75.48244 0 0 0 19.05957,-9.62447c-20.1135,-32.31567 -58.46709,-57.9884 -67.58337,-94.94441c-27.42572,29.45206 -30.50442,39.82474 -57.93018,69.27677c0,0 -25.96902,23.43334 -31.57423,36.02682c1.37724,1.44668 13.70736,4.91833 14.1814,7.76275c9.40329,0.7538 25.69401,-9.55292 25.69401,-9.55292s-35.55719,37.90795 -46.35281,61.25745c-0.97214,2.10264 -1.89544,4.50358 -1.08104,6.6722c0.65022,1.73139 2.98275,2.72967 4.48505,2.04173a19.23259,19.23259 0 0 0 -4.24254,6.075a16.52051,16.52051 0 0 0 20.38032,-2.05259q-2.25549,4.21391 -4.51099,8.42776l0.00266,0.00658a12.28318,12.28318 0 0 1 4.55391,20.66629c-9.33102,8.67826 -17.85711,17.80018 -20.98128,23.80738c-2.93903,5.65126 27.23828,12.46348 34.02593,12.18413c6.7876,-0.27936 13.13214,-3.26183 19.26253,-6.18892a14.25087,14.25087 0 0 0 1.53676,8.10867a25.93093,25.93093 0 0 0 19.86006,-3.21071c-0.36581,7.55998 12.66388,10.55216 15.63295,3.58999c-1.11395,4.09281 4.30204,6.62681 8.47842,7.36819c11.91663,2.11536 26.29703,3.40144 34.05122,-5.89121c8.92473,8.99915 25.27957,8.82833 34.15271,-0.13938c-0.87327,1.54715 0.46332,4.15076 2.44052,4.56098c2.33008,0.48342 4.597,-0.9011 6.5753,-2.22368q13.43357,-8.98108 26.86718,-17.96215l-41.2344,-27.79729c-8.97382,-6.04945 -8.09596,-19.28606 1.39403,-24.48865z"/>
  <path stroke="null" id="svg_6" fill="#f2f2f2" d="m735.32624,437.02937l0,153.12526q-3.20883,0.05971 -6.41766,0.23062c-2.03584,-50.99139 -3.32414,-99.27098 -1.09744,-134.54824c0.42943,-6.77552 0.98611,-13.06595 1.69388,-18.80765l5.82123,0z"/>
  <path stroke="null" id="svg_7" fill="#f2f2f2" d="m1094.73272,369.50592q0.28965,-0.15879 0.56805,-0.32844q0.71339,-3.41662 1.42681,-6.83323c2.79952,2.90777 8.30458,2.35899 10.47494,-1.04428a177.89525,177.89525 0 0 0 -29.52072,-44.23997a15.94336,15.94336 0 0 1 -0.22918,-21.14877q0.06883,-0.08021 0.13643,-0.16164a75.48244,75.48244 0 0 0 19.05957,-9.62447c-20.1135,-32.31567 -58.46709,-57.9884 -67.58337,-94.94441c-27.42572,29.45206 -30.50442,39.82474 -57.93018,69.27677c0,0 -25.96902,23.43334 -31.57423,36.02682c1.37724,1.44668 13.70736,4.91833 14.1814,7.76275c9.40329,0.7538 25.69401,-9.55292 25.69401,-9.55292s-35.55719,37.90795 -46.35281,61.25745c-0.97214,2.10264 -1.89544,4.50358 -1.08104,6.6722c0.65022,1.73139 2.98275,2.72967 4.48505,2.04173a19.23259,19.23259 0 0 0 -4.24254,6.075a16.52051,16.52051 0 0 0 20.38032,-2.05259q-2.2555,4.21391 -4.51099,8.42776l0.00266,0.00658a12.28318,12.28318 0 0 1 4.55391,20.66629c-9.33102,8.67826 -17.85711,17.80018 -20.98128,23.80738c-2.93903,5.65126 27.23828,12.46348 34.02593,12.18413c6.7876,-0.27936 13.13214,-3.26183 19.26253,-6.18892a14.25087,14.25087 0 0 0 1.53676,8.10867a25.93093,25.93093 0 0 0 19.86006,-3.21071c-0.36581,7.55998 12.66388,10.55216 15.63295,3.58999c-1.11395,4.09281 4.30204,6.62681 8.47842,7.36819c11.91663,2.11536 26.29703,3.40144 34.05122,-5.89117c8.92473,8.99915 25.27957,8.82833 34.15271,-0.13938c-0.87327,1.54715 0.46332,4.15076 2.44052,4.56098c2.33008,0.48342 4.597,-0.9011 6.5753,-2.22368q13.43357,-8.98108 26.86718,-17.96215l-41.2344,-27.79729c-8.97382,-6.04949 -8.09596,-19.2861 1.39403,-24.48869z"/>
  <path stroke="null" id="svg_8" fill="#f2f2f2" d="m1033.51887,429.73166l0,153.12526q-3.20883,0.05971 -6.41766,0.23062c-2.03584,-50.99139 -3.32414,-99.27098 -1.09744,-134.54824c0.42943,-6.77552 0.98611,-13.06595 1.69388,-18.80765l5.82123,0z"/>
  <path stroke="null" id="svg_9" fill="#f2f2f2" d="m844.95071,521.5153q0.12616,-0.06919 0.24742,-0.14304q0.3107,-1.48809 0.62145,-2.97621a3.05462,3.05462 0 0 0 4.56235,-0.45483a77.48194,77.48194 0 0 0 -12.85774,-19.26871a6.94412,6.94412 0 0 1 -0.09982,-9.21137q0.02997,-0.03494 0.05942,-0.0704a32.87647,32.87647 0 0 0 8.30139,-4.19193c-8.76047,-14.07512 -25.46533,-25.25684 -29.43592,-41.35303c-11.94527,12.82783 -13.28623,17.34567 -25.23148,30.17349c0,0 -11.31083,10.20639 -13.75216,15.69148c0.59986,0.6301 5.97025,2.14218 6.1767,3.38107c4.0956,0.32832 11.19102,-4.16074 11.19102,-4.16074s-15.48692,16.5108 -20.18896,26.68072a3.88156,3.88156 0 0 0 -0.47085,2.90607a1.58737,1.58737 0 0 0 1.95346,0.88928a8.37677,8.37677 0 0 0 -1.84783,2.64596a7.1955,7.1955 0 0 0 8.87664,-0.894q-0.98238,1.83536 -1.96476,3.67071l0.00115,0.00286a5.34994,5.34994 0 0 1 1.98346,9.0012c-4.06412,3.77982 -7.77766,7.75289 -9.13839,10.3693c-1.2801,2.46141 11.86363,5.42847 14.81999,5.30679s5.7197,-1.4207 8.38981,-2.69559a6.20701,6.20701 0 0 0 0.66934,3.5317a11.29421,11.29421 0 0 0 8.65005,-1.39842c-0.15934,3.29275 5.51575,4.59599 6.80892,1.56362c-0.48518,1.78262 1.87375,2.8863 3.69278,3.20921c5.19028,0.92134 11.45367,1.4815 14.831,-2.5659c3.88718,3.91958 11.01051,3.84517 14.8752,-0.06071a1.52083,1.52083 0 0 0 1.06297,1.98653c1.01488,0.21055 2.00222,-0.39248 2.86387,-0.96853q5.85098,-3.91171 11.702,-7.82341l-17.95964,-12.10711a6.23534,6.23534 0 0 1 0.60718,-10.66607z"/>
  <path stroke="null" id="svg_10" fill="#f2f2f2" d="m818.80155,544.844l0,66.69367q-1.39761,0.026 -2.79521,0.10046c-0.8867,-22.20929 -1.44782,-43.23747 -0.47794,-58.60246c0.18703,-2.95108 0.4295,-5.69087 0.73775,-8.19167l2.53541,0z"/>
  <path stroke="null" id="svg_11" fill="#ffb8b8" d="m1256.63896,262.66504l-17.82528,8.15687c0.41484,12.77999 14.25042,38.61025 14.25042,38.61025l8.43791,48.23726a8.65458,8.65458 0 1 0 14.86419,-1.82936l-2.18694,-61.05495l-17.54031,-32.12007z"/>
  <path stroke="null" id="svg_12" fill="#2f2e41" d="m1224.90535,219.02182l0,0a20.68241,20.68241 0 0 1 28.51853,14.14324l2.84873,12.04461s20.62082,36.57791 18.79541,49.54553l1.12289,36.10012l-19.31236,6.69608l-8.65877,-36.4116s-5.55509,-17.50758 -13.2918,-22.73203c-4.7381,-3.19956 -14.4465,-18.53029 -20.56091,-32.14806a20.62945,20.62945 0 0 1 10.53828,-27.23789z"/>
  <path stroke="null" id="svg_13" fill="#f04545" d="m1259.7813,355.00552c-0.25368,0.36955 -0.50001,0.74674 -0.72421,1.14449a16.22742,16.22742 0 0 0 -2.06317,6.7867a11.85963,11.85963 0 0 0 -2.75788,1.4895a12.18258,12.18258 0 0 0 -4.87611,9.13412a7.13747,7.13747 0 0 0 0.61299,3.49982a4.00752,4.00752 0 0 0 2.69555,2.20859c1.62919,0.31944 3.20334,-0.64068 4.51934,-1.63203c0.79366,-0.59785 1.56321,-1.22666 2.31259,-1.87847c0.43773,1.13697 0.90468,2.27548 1.39048,3.41457c8.16702,19.15022 21.73337,15.13475 25.14041,-7.82039c1.0743,-7.23781 1.38939,-14.46043 -3.33559,-19.00236c-1.95254,-7.00326 -4.9055,-14.32509 -7.46585,-22.26818l-17.01269,6.53732c0.2346,4.91604 1.32031,10.79612 1.56415,18.38632z"/>
  <polygon stroke="null" id="svg_14" fill="#ffb6b6" points="1216.9991149902344,581.7542381286621 1203.3558044433594,581.7533836364746 1196.8642272949219,529.1245994567871 1217.0023498535156,529.1253929138184 1216.9991149902344,581.7542381286621 "/>
  <path stroke="null" id="svg_15" fill="#2f2e41" d="m1217.47994,595.98779l-41.95781,-0.00159l0,-0.53061a16.33204,16.33204 0 0 1 16.33115,-16.33089l0.00101,0l7.66413,-5.81441l14.29958,5.81529l3.66264,0.00013l-0.00069,16.86208z"/>
  <polygon stroke="null" id="svg_16" fill="#ffb6b6" points="1320.9612121582031,509.93923568725586 1314.4998474121094,521.9562034606934 1265.0719299316406,502.75173568725586 1274.6086120605469,485.01528549194336 1320.9612121582031,509.93923568725586 "/>
  <path stroke="null" id="svg_17" fill="#2f2e41" d="m1333.7255,516.25605l-19.86972,36.95472l-0.46736,-0.2513a16.33204,16.33204 0 0 1 -6.65057,-22.11728l0.00048,-0.00089l-1.49199,-9.5037l11.89327,-9.84101l1.73449,-3.22591l14.8514,7.98536z"/>
  <path stroke="null" id="svg_18" fill="#2f2e41" d="m1191.20321,340.74406l-12.04238,96.33907l6.02119,32.29871l108.38145,47.48208l6.0212,-19.56888c-27.70368,-16.95215 -57.31865,-42.608 -75.97887,-44.49403c0,0 40.60437,-93.24073 39.09907,-100.76721s-71.50166,-11.28973 -71.50166,-11.28973z"/>
  <path stroke="null" id="svg_19" fill="#2f2e41" d="m1189.12899,436.80459l-6.30001,40.68452l15.90072,83.02844l21.07417,0c7.57114,-27.89799 7.96161,-64.56464 0.75265,-95.58642l-31.42754,-28.12654z"/>
  <path stroke="null" id="svg_20" fill="#2f2e41" d="m1202.66858,223.03715l9.71499,-16.92862l10.4309,-8.36776l19.56888,-3.0106l5.43672,4.18043l0,0.00005a138.99475,138.99475 0 0 1 20.37391,101.33675l-5.34249,28.93641l5.56061,29.53895a12.70252,12.70252 0 0 1 -12.37759,15.31989l-78.40635,-4.68121c-13.46152,0.05545 5.09266,-14.74205 7.11037,-28.05163l17.93004,-118.27266z"/>
  <path stroke="null" id="svg_21" fill="#ffb8b8" d="m1240.78131,281.32977l-19.40488,-2.7794c-6.56285,10.97402 -8.89505,40.18338 -8.89505,40.18338l-18.99071,45.13739a8.65457,8.65457 0 1 0 13.49212,6.50025l31.1808,-52.53805l2.61771,-36.50358z"/>
  <path stroke="null" id="svg_22" fill="#2f2e41" d="m1238.68673,224.4754l0,0a20.6824,20.6824 0 0 1 16.33878,27.32l-4.11791,11.67178s-2.06863,41.92291 -10.61733,51.84315l-21.19836,36.61561l-20.23484,-8.67225l11.56277,-36.61528s8.26169,-18.21233 4.57964,-26.79101c-2.25496,-5.25376 -2.12968,-23.39952 0.09216,-38.16072a20.62946,20.62946 0 0 1 23.59509,-17.21127z"/>
  <circle stroke="null" id="svg_23" fill="#ffb8b8" r="25.73105" cy="164.28315" cx="1227.47152"/>
  <path stroke="null" id="svg_24" fill="#2f2e41" d="m1227.90737,189.2833a66.12138,66.12138 0 0 0 11.24819,-0.78608c3.68745,-0.74986 11.93669,-6.79493 14.23627,-10.43257l0,0c1.7085,-2.70273 2.80103,-6.92326 3.41683,-9.9877a29.55811,29.55811 0 0 0 -5.16961,-23.46533a9.33839,9.33839 0 0 0 -3.77187,-3.21926c-0.13511,-0.05284 -0.27415,-0.09966 -0.41466,-0.13969a11.52185,11.52185 0 0 1 -5.73154,-3.54657a9.50461,9.50461 0 0 0 -0.9528,-0.98061a14.19258,14.19258 0 0 0 -5.92128,-2.97321c-3.51991,-0.94205 -8.61398,-0.00694 -15.14041,2.78204c-3.27888,1.40123 -6.86481,0.89414 -9.62342,0.29574a0.90261,0.90261 0 0 0 -0.84983,0.29116a6.37194,6.37194 0 0 1 -4.33071,1.72633c-0.98602,0.04329 -2.02051,1.40855 -3.27092,3.18887c-0.28372,0.40414 -0.61481,0.8758 -0.8536,1.16265l-0.03206,-0.55116l-0.55768,0.61485a7.73221,7.73221 0 0 0 3.49091,12.59737a15.07882,15.07882 0 0 0 3.0328,0.4833c0.6207,0.05584 1.26276,0.11361 1.87804,0.22036a11.65769,11.65769 0 0 1 8.66291,7.56498a3.04869,3.04869 0 0 0 4.60155,1.48014a5.03711,5.03711 0 0 1 4.58988,-0.83581a3.34392,3.34392 0 0 1 1.47802,1.67652a4.35765,4.35765 0 0 0 1.65355,1.92916c2.49884,1.2883 2.67106,6.99575 1.7736,11.75359c-0.86508,4.58612 -2.57518,7.90377 -4.15851,8.0678c-1.21893,0.12609 -1.35829,0.21268 -1.44656,0.42826l-0.07883,0.19298l0.13693,0.18052a4.9789,4.9789 0 0 0 2.1048,0.28134z"/>
  <path stroke="null" id="svg_25" fill="#f04545" d="m1262.42684,202.4378c-1.31468,5.22338 -7.69358,7.01122 -13.00984,7.87678c-8.86169,1.44274 -27.58752,2.82779 -27.58752,2.82779c-4.07963,2.67676 -8.48024,5.45285 -13.35939,5.41024s-10.01165,-4.30316 -9.0128,-9.07923c0.45511,-2.17633 2.02697,-3.93474 3.65254,-5.45155c11.42785,-10.66308 27.91471,-14.42434 43.53234,-13.80215c3.82826,0.15253 7.79638,0.58877 11.07102,2.5778c3.27456,1.98897 5.64878,5.92483 4.71365,9.64032z"/>
  <path stroke="null" id="svg_26" fill="#f04545" d="m1182.3576,281.62869c0.08716,-3.68996 1.50192,-7.20257 2.89598,-10.62008l11.56682,-28.3552q5.69423,-13.95892 11.38839,-27.91794c0.99209,-2.43202 2.05752,-4.96644 4.07927,-6.6432c3.54991,-2.94401 8.74888,-2.3244 13.29429,-1.5445l-2.85459,-0.05823c4.82935,3.42659 4.47789,10.98013 1.48987,16.09247c-2.98802,5.11228 -7.85807,8.84692 -11.32058,13.65056c-11.45795,15.89587 -5.42086,39.75342 -16.89148,55.64011c-1.40176,1.94148 -3.31401,3.84762 -5.70722,3.93036s-4.70249,-2.8253 -3.26603,-4.74128c-3.23327,-1.78013 -4.76189,-5.74319 -4.67473,-9.43306z"/>
  <path stroke="null" id="svg_27" fill="#f04545" d="m1190.67362,363.01413c-0.4242,0.14479 -0.8471,0.29999 -1.26455,0.48501a16.22741,16.22741 0 0 0 -5.70947,4.20925a11.85986,11.85986 0 0 0 -3.10147,-0.45345a12.18262,12.18262 0 0 0 -9.36767,4.41083a7.1375,7.1375 0 0 0 -1.59962,3.17266a4.00756,4.00756 0 0 0 0.84182,3.3816c1.11553,1.22958 2.95146,1.40027 4.59905,1.39165c0.99364,-0.00517 1.98642,-0.04958 2.97676,-0.12452c-0.32835,1.17324 -0.63418,2.36518 -0.92526,3.56884c-4.8935,20.23574 8.38413,25.12181 24.83195,8.75061c5.18607,-5.16184 9.75427,-10.76518 8.6793,-17.23036c3.02069,-6.48465 4.11194,-14.53068 7.31874,-22.31699l-17.54792,-4.92309a155.92309,155.92309 0 0 0 -9.73166,15.67797z"/>
  <path stroke="null" id="svg_28" fill="#ffb6b6" d="m1182.98687,382.35832a8.10304,8.10304 0 0 1 -0.3554,-12.33562l-13.11908,-38.19766l9.67327,-6.22636l15.25002,45.4819a8.09166,8.09166 0 0 1 -11.44881,11.27777l0,-0.00002z"/>
  <path stroke="null" id="svg_29" fill="#3f3d56" d="m1171.79099,276.96566c2.31711,9.80145 5.77556,18.36316 5.30704,22.47487c-0.46363,4.10047 4.54731,8.04065 2.9548,11.28187c-1.58927,3.24926 3.30324,3.59702 1.98034,8.82631c-1.3278,5.24053 -2.1902,6.36127 -1.06944,7.22372c1.12881,0.85923 7.09242,20.86098 7.09242,20.86098l-3.49806,1.28194l-10.20715,3.72368l-23.9861,-39.45152l0.07261,-48.42447l5.95572,-0.19115c1.42995,0.53613 3.01368,1.17935 4.59336,1.95448c4.8244,2.32896 9.70488,5.77135 10.80446,10.4393z"/>
  <polygon stroke="null" id="svg_30" fill="#ffb6b6" points="1083.4656066894531,584.2298240661621 1070.9929504394531,584.2290306091309 1065.0588073730469,536.1180076599121 1083.4680480957031,536.1188621520996 1083.4656066894531,584.2298240661621 "/>
  <path stroke="null" id="svg_31" fill="#2f2e41" d="m1045.81804,602.63361a5.30544,5.30544 0 0 0 5.2718,5.28236l23.48064,0l0.72751,-1.50773l3.32126,-6.85335l1.28629,6.85335l0.2847,1.50773l8.85659,0l-0.12652,-1.51828l-2.36176,-28.32018l-3.08927,-0.18978l-13.34818,-0.79077l-3.27911,-0.20033l0,8.456c-2.48828,2.64645 -22.01506,12.65233 -21.02396,17.28099z"/>
  <polygon stroke="null" id="svg_32" fill="#ffb6b6" points="1229.5959167480469,570.6525535583496 1218.7471008300781,576.8077659606934 1189.8437805175781,537.8914451599121 1205.8553161621094,528.8072776794434 1229.5959167480469,570.6525535583496 "/>
  <path stroke="null" id="svg_33" fill="#2f2e41" d="m1205.93332,605.23786a5.28046,5.28046 0 0 0 7.19068,1.99275l1.23365,-0.69584l0.01056,0l19.17882,-10.89156l-0.61155,-9.26784l5.50373,6.4948l4.05933,-2.30905l3.63756,-2.06657l-3.21585,-4.7024l-13.67503,-20.0223l-2.78353,1.37065l-12.00919,5.89385l-2.93109,1.44447l4.16472,7.3489c-0.85401,3.54271 -12.89486,21.86751 -9.75282,25.41015z"/>
  <path stroke="null" id="svg_34" fill="#2f2e41" d="m1145.36587,348.06334c16.71455,11.07601 33.26097,117.48846 28.91845,115.75119l39.39657,73.42129l-56.07531,25.13624l-36.87051,-128.02257l-6.14508,47.11232l8.19345,74.76519l-36.24617,8.76552l-25.07059,-1.79076c6.51452,-89.11877 22.77977,-183.11154 36.25944,-219.4693l47.63974,4.33088z"/>
  <path stroke="null" id="svg_35" fill="#3f3d56" d="m1159.05057,356.96019l63.24618,150.55427c-17.67003,9.83114 -160.2428,-45.9074 -160.2428,-45.9074l33.78095,-113.46924l-5.36824,-72.97076a16.31092,16.31092 0 0 1 17.52275,-16.16289l12.69819,-9.40668l18.07712,0.62367l12.09177,13.35644l7.22394,2.58119l5.61281,2.00085c1.13469,1.02208 2.37332,2.20012 3.55997,3.49939l-8.87828,52.83682l-3.77652,15.79907l4.45216,16.66527z"/>
  <path stroke="null" id="svg_36" fill="#f04545" d="m1158.66046,251.71682c-1.83396,-4.48113 -7.73782,-5.26119 -12.57876,-5.35561q-12.10409,-0.23601 -24.20814,-0.47195l-0.70141,1.46262c-3.97068,-1.86341 -8.23974,-3.7744 -12.57628,-3.11621s-8.36228,5.10211 -6.86624,9.22534c0.68167,1.87886 2.304,3.24382 3.94342,4.38699c11.52517,8.03624 26.67492,9.28745 40.4939,6.74834c3.38736,-0.6224 6.86312,-1.51507 9.52435,-3.70139c2.66121,-2.18628 4.27365,-5.99057 2.96916,-9.17813z"/>
  <circle stroke="null" id="svg_37" fill="#ffb6b6" r="23.19435" cy="220.57836" cx="1127.33669"/>
  <path stroke="null" id="svg_38" fill="#2f2e41" d="m1157.07753,227.51272c-1.27831,4.87978 -3.63959,9.64113 -7.55534,12.81256c-3.92447,3.1715 -22.38104,10.68465 -23.93914,4.25288c1.04213,4.49284 0.41417,6.20945 -1.26216,7.8161c-0.28684,-0.38901 -0.59092,-0.7607 -0.90371,-1.12374a14.61201,14.61201 0 0 0 -4.07928,-3.27245a46.96997,46.96997 0 0 0 0.58349,8.10598a27.40538,27.40538 0 0 0 -1.96977,2.01453c-2.98488,-8.89675 -9.52758,-19.5528 -4.79064,-27.65367c1.87997,-3.21503 0.31234,-3.65533 -1.35272,-4.02434c-2.90685,-0.64415 -4.50999,-12.57416 -5.20159,-15.4741c-0.85807,-3.63579 -1.19776,-7.8186 1.0554,-10.80396s7.95233,-3.11238 9.10469,0.44469l2.3997,-3.26286c3.10102,-6.82467 11.33318,-5.45963 18.77584,-4.57765c7.44274,0.87337 14.01295,6.1058 17.36467,12.81022c3.34311,6.70438 3.66643,14.68105 1.77055,21.93582z"/>
  <path stroke="null" id="svg_39" fill="#f04545" d="m1179.7374,370.79686c-0.17631,0.24762 -0.34784,0.50045 -0.50477,0.76746a11.09999,11.09999 0 0 0 -1.49159,4.57156a8.05573,8.05573 0 0 0 -1.87863,0.98199a8.33898,8.33898 0 0 0 -3.42032,6.13334a4.83083,4.83083 0 0 0 0.35936,2.37302a2.6684,2.6684 0 0 0 1.7805,1.51893c1.09155,0.23116 2.16552,-0.40369 3.06622,-1.06207c0.54322,-0.39704 1.07066,-0.81525 1.58485,-1.24922c0.2773,0.77313 0.57427,1.54756 0.88388,2.32259c5.20529,13.02937 14.39618,10.43891 17.03785,-5.05693c0.83295,-4.88587 1.1547,-9.76851 -1.95607,-12.88456c1.23808,-5.15521 -0.22215,-10.20324 -4.68605,-15.13192l-11.54853,4.26434c-1.67126,3.95357 -1.47026,8.09821 0.7733,12.45147z"/>
  <circle stroke="null" id="svg_40" fill="#e6e7e8" r="4.49082" cy="485.34855" cx="831.82858"/>
  <circle stroke="null" id="svg_42" fill="#e6e7e8" r="4.4908" cy="333.45593" cx="1130.64353"/>
  <circle stroke="null" id="svg_43" fill="#e6e7e8" r="4.4908" cy="206.21603" cx="1219.71145"/>
  <circle stroke="null" id="svg_44" fill="#e6e7e8" r="4.4908" cy="198.61997" cx="1425.43387"/>
  <circle stroke="null" id="svg_45" fill="#e6e7e8" r="4.49081" cy="187.07591" cx="229.8951"/>
  <circle stroke="null" id="svg_48" fill="#e6e7e8" r="4.4908" cy="495.68679" cx="911.35351"/>
  <circle stroke="null" id="svg_49" fill="#e6e7e8" r="4.4908" cy="307.2127" cx="1213.34946"/>
  <circle stroke="null" id="svg_50" fill="#e6e7e8" r="4.4908" cy="248.36425" cx="1240.38794"/>
  <circle stroke="null" id="svg_51" fill="#e6e7e8" r="4.4908" cy="152.13908" cx="1129.05303"/>
  <circle stroke="null" id="svg_52" fill="#e6e7e8" r="4.4908" cy="49.65146" cx="856.3002"/>
  <circle stroke="null" id="svg_53" fill="#e6e7e8" r="4.4908" cy="464.67207" cx="1155.29626"/>
  <circle stroke="null" id="svg_54" fill="#e6e7e8" r="4.49082" cy="500.45829" cx="1291.28389"/>
  <circle stroke="null" id="svg_55" fill="#e6e7e8" r="4.4908" cy="360.49441" cx="1276.17416"/>
  <circle stroke="null" id="svg_56" fill="#e6e7e8" r="4.4908" cy="583.16422" cx="1196.64922"/>
  <circle stroke="null" id="svg_57" fill="#e6e7e8" r="4.4908" cy="409.00462" cx="1142.57227"/>
  <circle stroke="null" id="svg_58" fill="#e6e7e8" r="4.4908" cy="421.72861" cx="1094.06206"/>
  <circle stroke="null" id="svg_59" fill="#e6e7e8" r="4.4908" cy="529.08727" cx="1083.72382"/>
  <circle stroke="null" id="svg_60" fill="#e6e7e8" r="4.4908" cy="397.07588" cx="1221.30195"/>
  <circle stroke="null" id="svg_61" fill="#e6e7e8" r="4.4908" cy="307.2127" cx="1268.22166"/>
  <circle stroke="null" id="svg_62" fill="#e6e7e8" r="4.4908" cy="280.17422" cx="1098.83355"/>
  <circle stroke="null" id="svg_63" fill="#e6e7e8" r="4.4908" cy="300.05546" cx="1162.4535"/>
  <circle stroke="null" id="svg_66" fill="#fff" r="4.49082" cy="500.45829" cx="742.76065"/>
  <circle stroke="null" id="svg_67" fill="#fff" r="4.49082" cy="469.44357" cx="742.76065"/>
  <circle stroke="null" id="svg_68" fill="#fff" r="4.4908" cy="334.25118" cx="908.96777"/>
  <circle stroke="null" id="svg_69" fill="#fff" r="4.49081" cy="246.77375" cx="853.30031"/>
  <circle stroke="null" id="svg_70" fill="#fff" r="4.49081" cy="292.89821" cx="644.14973"/>
  <circle stroke="null" id="svg_71" fill="#fff" r="4.49081" cy="357.31341" cx="646.53548"/>
  <circle stroke="null" id="svg_72" fill="#fff" r="4.49082" cy="384.35189" cx="815.12834"/>
  <circle stroke="null" id="svg_73" fill="#e6e7e8" r="4.49081" cy="222.91627" cx="789.68036"/>
  <circle stroke="null" id="svg_74" fill="#e6e7e8" r="4.49082" cy="327.09393" cx="726.85567"/>
  <circle stroke="null" id="svg_76" fill="#e6e7e8" r="4.4908" cy="198.46235" cx="883.32097"/>
  <circle stroke="null" id="svg_77" fill="#f04545" r="5.12984" cy="142.32664" cx="1262.30152"/>
  <path stroke="null" id="svg_78" fill="#f04545" d="m1218.87006,135.77311c-1.86725,-3.26603 -7.00363,-3.67473 -9.75739,-1.11149a2.06089,2.06089 0 0 0 -0.6135,0.853a2.41858,2.41858 0 0 0 0.39972,1.7742a226.85024,226.85024 0 0 0 33.36719,47.53974c1.20262,1.31569 2.50203,2.66958 4.20565,3.19402a5.14357,5.14357 0 0 0 5.00319,-8.69446c3.65523,0.63488 7.31802,-1.40097 9.85075,-4.11186c4.5551,-4.87549 6.35097,-11.99094 5.36007,-18.58923s-4.57825,-12.65072 -9.39882,-17.26389a28.13009,28.13009 0 0 0 -9.21174,-6.0598c-9.07826,-3.49572 -19.23396,-0.81381 -28.57861,1.89036l2.40176,0.31492"/>
  <circle stroke="null" id="svg_79" fill="#f04545" r="5.12984" cy="210.34196" cx="1171.42503"/>
  <path stroke="null" id="svg_80" fill="#f04545" d="m1116.72809,197.66069c-2.69138,-2.62867 -7.74291,-1.61297 -9.68809,1.60724a2.06106,2.06106 0 0 0 -0.35603,0.98855a2.4186,2.4186 0 0 0 0.871,1.59653c13.39235,14.05483 10.30955,35.9207 26.83542,46.10837c1.51734,0.9354 3.13827,1.881 4.9204,1.91809a5.30367,5.30367 0 0 0 5.09781,-3.89811c0.55882,-2.2413 6.88071,-2.09151 4.81906,-3.13328c3.68916,-0.39196 17.4538,-15.59915 19.14592,-18.90069c3.04326,-5.93784 2.81875,-13.27299 0.05618,-19.34649s-7.87233,-10.90996 -13.77329,-14.02413a28.13012,28.13012 0 0 0 -10.52048,-3.30098c-9.68891,-0.87182 -14.4974,0.30824 -22.74206,5.47162"/>
  <circle stroke="null" id="svg_81" fill="#e6e7e8" r="4.4908" cy="145.77708" cx="1229.25444"/>
  <circle stroke="null" id="svg_82" fill="#e6e7e8" r="4.4908" cy="210.19228" cx="1129.05303"/>
  <path stroke="null" id="svg_1" fill="#ffb6b6" d="m1082.27107,383.71993a8.10303,8.10303 0 0 0 -0.83697,-12.31232l9.37076,-39.28563l-10.2291,-5.26357l-10.78864,46.74152a8.09166,8.09166 0 0 0 12.48394,10.12z"/>
  <path stroke="null" id="svg_3" fill="#f04545" d="m1083.32807,372.01227c0.16906,0.25263 0.33321,0.51034 0.4823,0.78173a11.10009,11.10009 0 0 1 1.35836,4.61291a8.05572,8.05572 0 0 1 1.84937,1.03607a8.33898,8.33898 0 0 1 3.24098,6.22998a4.83085,4.83085 0 0 1 -0.42804,2.36162a2.66839,2.66839 0 0 1 -1.8238,1.46665c-1.0978,0.19941 -2.15291,-0.46633 -3.03413,-1.15056c-0.53147,-0.41263 -1.04655,-0.84596 -1.54795,-1.29467c-0.29961,0.76476 -0.6189,1.53026 -0.95087,2.29597c-5.58102,12.87289 -14.69291,10.01696 -16.884,-5.54899c-0.6909,-4.90797 -0.87091,-9.79789 2.32896,-12.82239c-1.08802,-5.18895 0.51801,-10.1925 5.123,-14.98965l11.41999,4.5975c1.55586,4.00043 1.23474,8.13751 -1.13415,12.42383z"/>
  <path stroke="null" id="svg_2" fill="#3f3d56" d="m1103.12206,261.51541s-18.52722,6.23535 -19.88306,16.22134s-3.97415,18.83693 -3.11349,22.88087s-3.74733,8.44214 -1.84916,11.51931s-2.94322,3.89622 -1.11582,8.97764s2.79417,6.11894 1.75671,7.08571s-5.03926,21.44446 -5.03926,21.44446l14.12256,3.66166l20.06246,-41.58171l-4.94094,-50.20928z"/>
  <circle stroke="null" id="svg_95" fill="#e6e7e8" r="4.49081" cy="74.32795" cx="236.89868"/>
  <circle stroke="null" id="svg_96" fill="#e6e7e8" r="4.49081" cy="38.46622" cx="138.14519"/>
  <circle stroke="null" id="svg_97" fill="#e6e7e8" r="4.4908" cy="545.98632" cx="625.46138"/>
  <circle stroke="null" id="svg_98" fill="#e6e7e8" r="4.49081" cy="689.89581" cx="82.46269"/>
  <circle stroke="null" id="svg_99" fill="#fff" r="4.49081" cy="520.59853" cx="406.06367"/>
  <circle stroke="null" id="svg_100" fill="#e6e7e8" r="4.49081" cy="122.24833" cx="92.35789"/>
  <circle stroke="null" id="svg_101" fill="#e6e7e8" r="4.49081" cy="74.32795" cx="236.89868"/>
  <circle transform="rotate(22.6501 47.5177 26.7412)" stroke="null" id="svg_41" fill="#e6e7e8" r="4.49081" cy="26.74121" cx="47.51774"/>
  <circle transform="rotate(22.6501 -29.7391 17.7692)" stroke="null" id="svg_46" fill="#e6e7e8" r="4.49081" cy="17.76919" cx="-29.73907"/>
  <circle transform="rotate(22.6501 150.807 408.255)" stroke="null" id="svg_64" fill="#e6e7e8" r="4.49081" cy="408.25536" cx="150.80666"/>
  <circle transform="rotate(22.6501 232.14 429.589)" stroke="null" id="svg_65" fill="#fff" r="4.49081" cy="452.9951" cx="154.58984"/>
  <circle transform="rotate(22.6501 -83.5447 83.2112)" stroke="null" id="svg_75" fill="#e6e7e8" r="4.49081" cy="83.21125" cx="-83.54469"/>
  <circle transform="rotate(22.6501 47.5177 26.7412)" stroke="null" id="svg_94" fill="#e6e7e8" r="4.49081" cy="26.74121" cx="47.51774"/>
  <circle stroke="null" id="svg_103" fill="#e6e7e8" r="4.49081" cy="135.22791" cx="830.46433"/>
  <circle stroke="null" id="svg_104" fill="#fff" r="4.49081" cy="376.59821" cx="558.06399"/>
  <circle transform="rotate(22.6501 142.806 401.589)" stroke="null" id="svg_105" fill="#e6e7e8" r="4.4908" cy="463.27348" cx="214.2242"/>
  <circle transform="rotate(22.6501 -113.411 224.995)" stroke="null" id="svg_107" fill="#fff" r="4.49081" cy="224.9946" cx="-113.41074"/>
  <circle stroke="null" id="svg_109" fill="#e6e7e8" r="4.49081" cy="293.13345" cx="80.81172"/>
  <circle stroke="null" id="svg_110" fill="#e6e7e8" r="4.49081" cy="234.24857" cx="531.02552"/>
  <circle transform="rotate(22.6501 440.852 84.0747)" stroke="null" id="svg_112" fill="#e6e7e8" r="4.49081" cy="84.07467" cx="440.85193"/>
  <circle transform="rotate(22.6501 309.789 140.545)" stroke="null" id="svg_114" fill="#e6e7e8" r="4.49081" cy="140.54471" cx="309.7895"/>
  <circle transform="rotate(22.6501 582.186 54.7413)" stroke="null" id="svg_115" fill="#e6e7e8" r="4.49081" cy="54.74127" cx="582.18557"/>
  <circle transform="rotate(22.6501 279.923 282.328)" stroke="null" id="svg_116" fill="#fff" r="4.49081" cy="282.32805" cx="279.92345"/>
  <circle stroke="null" id="svg_117" fill="#e6e7e8" r="4.49081" cy="140.40915" cx="731.22954"/>
  <circle stroke="null" id="svg_118" fill="#e6e7e8" r="4.49081" cy="131.66141" cx="630.23287"/>
  <circle stroke="null" id="svg_120" fill="#e6e7e8" r="4.49081" cy="131.66141" cx="630.23287"/>
  <circle transform="rotate(22.6501 154.59 452.995)" stroke="null" id="svg_121" fill="#fff" r="4.49081" cy="452.9951" cx="154.58984"/>
  <circle transform="rotate(22.6501 399.558 381.94)" stroke="null" id="svg_122" fill="#e6e7e8" r="4.4908" cy="381.93997" cx="399.55794"/>
  <circle transform="rotate(22.6501 457.474 312.255)" stroke="null" id="svg_123" fill="#e6e7e8" r="4.49081" cy="312.25515" cx="457.47399"/>
  <circle transform="rotate(22.6501 417.474 249.589)" stroke="null" id="svg_124" fill="#e6e7e8" r="4.49081" cy="249.58835" cx="417.4739"/>
  <circle transform="rotate(22.6501 127.923 426.328)" stroke="null" id="svg_125" fill="#fff" r="4.49081" cy="426.32837" cx="127.92312"/>
  <circle transform="rotate(22.6501 288.14 322.922)" stroke="null" id="svg_126" fill="#e6e7e8" r="4.49081" cy="322.92184" cx="288.14028"/>
  <circle stroke="null" id="svg_127" fill="#e6e7e8" r="4.49081" cy="509.89542" cx="337.12991"/>
  <circle stroke="null" id="svg_128" fill="#e6e7e8" r="4.49081" cy="592.56227" cx="67.796"/>
  <circle stroke="null" id="svg_130" fill="#e6e7e8" r="4.49081" cy="603.22896" cx="185.12957"/>
  <circle stroke="null" id="svg_131" fill="#e6e7e8" r="4.49081" cy="676.56245" cx="323.79655"/>
  <circle stroke="null" id="svg_132" fill="#e6e7e8" r="4.49081" cy="712.56253" cx="862.4644"/>
  <circle stroke="null" id="svg_133" fill="#e6e7e8" r="4.49081" cy="543.22882" cx="451.79683"/>
  <circle stroke="null" id="svg_134" fill="#e6e7e8" r="4.49081" cy="401.89518" cx="501.13027"/>
  <circle stroke="null" id="svg_135" fill="#e6e7e8" r="4.49081" cy="673.89578" cx="455.79684"/>
  <circle stroke="null" id="svg_136" fill="#e6e7e8" r="4.49081" cy="425.89523" cx="591.79714"/>
  <circle stroke="null" id="svg_138" fill="#e6e7e8" r="4.49081" cy="676.56245" cx="585.13046"/>
  <circle stroke="null" id="svg_140" fill="#e6e7e8" r="4.4908" cy="112.31826" cx="985.63382"/>
  <circle stroke="null" id="svg_141" fill="#e6e7e8" r="4.4908" cy="52.31813" cx="1082.96737"/>
  <circle stroke="null" id="svg_142" fill="#e6e7e8" r="4.49081" cy="55.22774" cx="750.46416"/>
  <circle stroke="null" id="svg_143" fill="#e6e7e8" r="4.49081" cy="35.22769" cx="967.79797"/>
  <circle stroke="null" id="svg_144" fill="#e6e7e8" r="4.49081" cy="381.89512" cx="850.46438"/>
  <circle stroke="null" id="svg_145" fill="#e6e7e8" r="4.4908" cy="46.61963" cx="1233.43345"/>
  <circle stroke="null" id="svg_146" fill="#e6e7e8" r="4.4908" cy="42.61962" cx="1400.10048"/>
  <circle stroke="null" id="svg_147" fill="#e6e7e8" r="4.4908" cy="113.28645" cx="1312.10029"/>
  <circle stroke="null" id="svg_148" fill="#e6e7e8" r="4.4908" cy="631.95425" cx="1364.1004"/>
  <circle stroke="null" id="svg_149" fill="#e6e7e8" r="4.4908" cy="297.28685" cx="1336.10034"/>
  <circle stroke="null" id="svg_150" fill="#e6e7e8" r="4.4908" cy="702.62108" cx="1252.10015"/>
  <circle stroke="null" id="svg_151" fill="#e6e7e8" r="4.4908" cy="477.28724" cx="1404.10049"/>
  <circle stroke="null" id="svg_152" fill="#e6e7e8" r="4.4908" cy="433.28715" cx="1284.10022"/>
  <circle stroke="null" id="svg_153" fill="#e6e7e8" r="4.49081" cy="669.89577" cx="706.46406"/>
  <circle stroke="null" id="svg_154" fill="#e6e7e8" r="4.49081" cy="713.89586" cx="1059.79817"/>
  <circle stroke="null" id="svg_155" fill="#e6e7e8" r="4.49081" cy="307.22829" cx="905.13116"/>
  <circle transform="rotate(22.6501 440.852 84.0747)" stroke="null" id="svg_156" fill="#e6e7e8" r="4.49081" cy="84.07467" cx="440.85193"/>
 </g>
</svg>