<svg width="1173.91857" height="726.2621" xmlns="http://www.w3.org/2000/svg" data-name="Layer 1">
 <g>
  <title>Layer 1</title>
  <path d="m608.72285,339.85239a10.1893,10.1893 0 0 0 -1.05246,-15.48234l11.78343,-49.40039l-12.86276,-6.61877l-13.56636,58.77593a10.175,10.175 0 0 0 15.69815,12.72557z" fill="#ffb6b6" id="svg_1"/>
  <path d="m634.94228,186.1842s-23.29737,7.84075 -25.0023,20.39781s-4.99736,23.68682 -3.91511,28.77194s-4.71215,10.61572 -2.32526,14.48515s-3.701,4.89937 -1.40311,11.28909s3.51358,7.69437 2.209,8.91005s-6.3367,26.96571 -6.3367,26.96571l17.75866,4.60442l25.22789,-52.28764l-6.21307,-63.13653z" fill="#3f3d56" id="svg_2"/>
  <path d="m611.30199,325.13039c0.21259,0.31768 0.419,0.64173 0.60648,0.983a13.958,13.958 0 0 1 1.70809,5.80058a10.1298,10.1298 0 0 1 2.32552,1.30282a10.486,10.486 0 0 1 4.07542,7.834a6.07463,6.07463 0 0 1 -0.53824,2.96966a3.35541,3.35541 0 0 1 -2.29337,1.84426c-1.38045,0.25075 -2.70721,-0.5864 -3.81532,-1.44679c-0.6683,-0.51887 -1.316,-1.06377 -1.9465,-1.628c-0.37675,0.96166 -0.77825,1.92425 -1.19569,2.88711c-7.01795,16.18724 -18.47585,12.596 -21.23108,-6.97767c-0.86878,-6.17161 -1.09514,-12.32052 2.92859,-16.12374c-1.36815,-6.52494 0.65138,-12.81674 6.442,-18.849l14.36026,5.78121c1.95644,5.03041 1.55264,10.23265 -1.42616,15.62256z" fill="#f04545" id="svg_3"/>
  <path d="m1003.91856,516.40205c-88.07574,123.35 -293.61378,209.86005 -533.12791,209.86005c-194.00535,0 -365.73529,-56.76 -470.79065,-143.9c21.317,-3.59 42.819,-5.21 64.89254,-2.65c52.93956,6.15 91.55575,35.11 144.02454,42.56c45.35763,6.44 92.66526,-4.42 132.79443,-18.54c40.146,-14.13 77.29958,-31.86 121.17769,-41.27c29.10079,-6.24 71.61727,-4.51 78.74535,13.4c3.24462,8.17 -0.9751,19.17 11.46549,23.15q147.89954,-31.725 295.79917,-63.46c31.95878,-6.85 64.03525,-13.73 97.27172,-17.94c18.89616,-2.39005 39.28858,-3.76005 57.74763,-1.21005z" fill="#e6e7e8" id="svg_4"/>
  <path d="m240.89296,363.22873q0.36423,-0.19967 0.71431,-0.413q0.89706,-4.29629 1.79417,-8.59256c3.52031,3.65643 10.44274,2.96635 13.1719,-1.31315a223.69745,223.69745 0 0 0 -37.12134,-55.63031a20.04825,20.04825 0 0 1 -0.28819,-26.59389q0.08655,-0.10086 0.17156,-0.20326a94.9167,94.9167 0 0 0 23.96678,-12.10245c-25.29207,-40.6359 -73.52045,-72.91851 -84.98388,-119.38949c-34.48694,37.035 -38.35831,50.07831 -72.84531,87.11327c0,0 -32.65519,29.46666 -39.70356,45.30255c1.73183,1.81915 17.23656,6.18464 17.83264,9.76141c11.82433,0.94788 32.30937,-12.01248 32.30937,-12.01248s-44.712,47.668 -58.28714,77.02924c-1.22243,2.644 -2.38346,5.6631 -1.35937,8.39007c0.81763,2.17716 3.75071,3.43247 5.6398,2.56741a24.18435,24.18435 0 0 0 -5.33485,7.63911a20.774,20.774 0 0 0 25.62758,-2.58106q-2.83621,5.29886 -5.67242,10.59763l0.00334,0.00828a15.4457,15.4457 0 0 1 5.72639,25.98718c-11.73345,10.91263 -22.45473,22.38314 -26.38327,29.937c-3.69574,7.10628 34.25125,15.67242 42.78649,15.32114c8.53518,-0.35128 16.51324,-4.10165 24.222,-7.78237a17.92,17.92 0 0 0 1.93243,10.19639a32.60729,32.60729 0 0 0 24.97337,-4.03736c-0.46,9.50643 15.92442,13.269 19.65792,4.51429c-1.40076,5.14657 5.40967,8.333 10.66134,9.26526c14.98477,2.66 33.06765,4.2772 42.8183,-7.408c11.22255,11.31614 31.78823,11.10133 42.94591,-0.17526c-1.09811,1.94549 0.58261,5.21944 3.06887,5.73528c2.93,0.60788 5.78058,-1.1331 8.26822,-2.79621q16.89228,-11.29341 33.7846,-22.58681l-51.85091,-34.95418c-11.28428,-7.60698 -10.18041,-24.25159 1.75295,-30.79367z" fill="#f2f2f2" id="svg_5"/>
  <path d="m153.91856,427.71063l0,192.55q-4.035,0.07508 -8.07,0.29c-2.56,-64.12 -4.18,-124.83 -1.38,-169.19c0.54,-8.52 1.24,-16.43 2.13,-23.65l7.32,0z" fill="#f2f2f2" id="svg_6"/>
  <path d="m541.89296,323.22873q0.36423,-0.19967 0.71431,-0.413q0.89706,-4.29629 1.79417,-8.59256c3.52031,3.65643 10.44274,2.96635 13.1719,-1.31315a223.69745,223.69745 0 0 0 -37.12134,-55.63031a20.04825,20.04825 0 0 1 -0.28819,-26.59389q0.08655,-0.10086 0.17156,-0.20326a94.9167,94.9167 0 0 0 23.96678,-12.10245c-25.29207,-40.6359 -73.52045,-72.91851 -84.98388,-119.38949c-34.48694,37.035 -38.35831,50.07831 -72.84531,87.11327c0,0 -32.65519,29.46666 -39.70356,45.30255c1.73183,1.81915 17.23656,6.18464 17.83264,9.76141c11.82433,0.94788 32.30937,-12.01248 32.30937,-12.01248s-44.712,47.668 -58.28714,77.02924c-1.22243,2.644 -2.38346,5.6631 -1.35937,8.39007c0.81763,2.17716 3.75071,3.43247 5.6398,2.56741a24.18435,24.18435 0 0 0 -5.33485,7.63911a20.774,20.774 0 0 0 25.62758,-2.58106q-2.83622,5.29886 -5.67242,10.59763l0.00334,0.00828a15.4457,15.4457 0 0 1 5.72639,25.98718c-11.73345,10.91263 -22.45473,22.38314 -26.38327,29.937c-3.69574,7.10628 34.25125,15.67242 42.78649,15.32114c8.53518,-0.35128 16.51324,-4.10165 24.222,-7.78237a17.92,17.92 0 0 0 1.93243,10.19639a32.60729,32.60729 0 0 0 24.97337,-4.03736c-0.46,9.50643 15.92442,13.269 19.65792,4.51429c-1.40076,5.14657 5.40967,8.333 10.66134,9.26526c14.98477,2.66 33.06765,4.2772 42.8183,-7.40795c11.22255,11.31614 31.78823,11.10133 42.94591,-0.17526c-1.09811,1.94549 0.58261,5.21944 3.06887,5.73528c2.93,0.60788 5.78058,-1.1331 8.26822,-2.79621q16.89228,-11.29341 33.7846,-22.58681l-51.85091,-34.95418c-11.28428,-7.60703 -10.18041,-24.25164 1.75295,-30.79372z" fill="#f2f2f2" id="svg_7"/>
  <path d="m454.91856,387.71063l0,192.55q-4.035,0.07508 -8.07,0.29c-2.56,-64.12 -4.18,-124.83 -1.38,-169.19c0.54,-8.52 1.24,-16.43 2.13,-23.65l7.32,0z" fill="#f2f2f2" id="svg_8"/>
  <path d="m337.80028,520.62555q0.15864,-0.087 0.31112,-0.17987q0.3907,-1.87123 0.78145,-3.74249a3.84109,3.84109 0 0 0 5.737,-0.57194a97.431,97.431 0 0 0 -16.16819,-24.22977a8.732,8.732 0 0 1 -0.12552,-11.583q0.03769,-0.04393 0.07472,-0.08853a41.34109,41.34109 0 0 0 10.43873,-5.27122c-11.016,-17.699 -32.02182,-31.75965 -37.01471,-52.00008c-15.02078,16.13057 -16.707,21.81161 -31.72776,37.94217c0,0 -14.223,12.8342 -17.29289,19.73152c0.7543,0.79233 7.50739,2.69372 7.767,4.25158c5.15008,0.41285 14.07234,-5.232 14.07234,-5.232s-19.47429,20.76179 -25.38696,33.55013a4.88093,4.88093 0 0 0 -0.59208,3.65429a1.99607,1.99607 0 0 0 2.45641,1.11824a10.53352,10.53352 0 0 0 -2.32359,3.32721a9.0481,9.0481 0 0 0 11.16209,-1.12418q-1.23531,2.30791 -2.47062,4.6158l0.00145,0.0036a6.72738,6.72738 0 0 1 2.49413,11.31872c-5.1105,4.753 -9.78015,9.749 -11.49123,13.03906c-1.60968,3.09514 14.91813,6.82612 18.63565,6.67312s7.19234,-1.78648 10.54991,-3.38961a7.80511,7.80511 0 0 0 0.84167,4.441a14.2021,14.2021 0 0 0 10.87715,-1.75847c-0.20036,4.14053 6.93587,5.77931 8.562,1.9662c-0.6101,2.24159 2.35618,3.62943 4.64355,4.03548c6.52661,1.15855 14.40261,1.86294 18.6495,-3.22653c4.888,4.92874 13.84536,4.83518 18.70508,-0.07634a1.91239,1.91239 0 0 0 1.33665,2.498c1.27618,0.26476 2.51773,-0.49353 3.60122,-1.21789q7.35742,-4.91885 14.71488,-9.83768l-22.58366,-15.22429a7.84074,7.84074 0 0 1 0.76351,-13.41223z" fill="#f2f2f2" id="svg_9"/>
  <path d="m299.91856,548.71063l0,83.86511q-1.75745,0.0327 -3.51489,0.12633c-1.115,-27.92746 -1.82059,-54.3697 -0.601,-73.69068c0.23519,-3.71089 0.54008,-7.15608 0.9277,-10.30076l3.18819,0z" fill="#f2f2f2" id="svg_10"/>
  <path d="m827.98476,187.62982l-22.41471,10.257c0.52165,16.07042 17.91944,48.55113 17.91944,48.55113l10.6104,60.65677a10.88285,10.88285 0 1 0 18.69123,-2.30036l-2.75,-76.7746l-22.05636,-40.38994z" fill="#ffb8b8" id="svg_11"/>
  <path d="m788.08079,132.7499l0,0a26.00745,26.00745 0 0 1 35.86112,17.78466l3.58218,15.1457s25.93,45.99552 23.63461,62.30188l1.412,45.39472l-24.28466,8.4201l-10.88812,-45.7864s-6.98534,-22.01521 -16.714,-28.58478c-5.958,-4.02334 -18.166,-23.30123 -25.85467,-40.42513a25.94086,25.94086 0 0 1 13.25154,-34.25075z" fill="#2f2e41" id="svg_12"/>
  <path d="m831.93615,303.74496c-0.319,0.4647 -0.62875,0.939 -0.91067,1.43916a20.40545,20.40545 0 0 0 -2.59437,8.53405a14.9131,14.9131 0 0 0 -3.46795,1.873a15.3192,15.3192 0 0 0 -6.13155,11.48586a8.97514,8.97514 0 0 0 0.77082,4.40091a5.03933,5.03933 0 0 0 3.38956,2.77723c2.04865,0.40168 4.0281,-0.80564 5.68292,-2.05223c0.998,-0.75178 1.96569,-1.54248 2.908,-2.36212c0.55043,1.4297 1.13761,2.86134 1.74848,4.29371c10.26976,24.08078 27.329,19.03145 31.61324,-9.83389c1.3509,-9.10131 1.74711,-18.18352 -4.19439,-23.89484c-2.45526,-8.80637 -6.1685,-18.01333 -9.38806,-28.00151l-21.3929,8.22047c0.295,6.18176 1.66025,13.57577 1.96687,23.1202z" fill="#f04545" id="svg_13"/>
  <polygon points="778.139 588.874 760.983 588.873 752.82 522.694 778.143 522.695 778.139 588.874" fill="#ffb6b6" id="svg_14"/>
  <path d="m778.74358,606.77227l-52.76057,-0.002l0,-0.66722a20.537,20.537 0 0 1 20.53588,-20.53556l0.00127,0l9.63739,-7.31143l17.98125,7.31254l4.60565,0.00016l-0.00087,21.20351z" fill="#2f2e41" id="svg_15"/>
  <polygon points="908.868 498.569 900.743 513.68 838.589 489.531 850.581 467.228 908.868 498.569" fill="#ffb6b6" id="svg_16"/>
  <path d="m924.91856,506.51221l-24.98552,46.46935l-0.58769,-0.316a20.537,20.537 0 0 1 -8.36287,-27.81175l0.0006,-0.00112l-1.87613,-11.95059l14.9554,-12.37475l2.18106,-4.05647l18.67515,10.04133z" fill="#2f2e41" id="svg_17"/>
  <path d="m745.70145,285.81164l-15.1429,121.14322l7.57145,40.61457l136.28612,59.70716l7.57146,-24.60722c-34.83647,-21.31677 -72.07633,-53.57816 -95.54094,-55.94979c0,0 51.05866,-117.24716 49.1658,-126.71147s-89.91099,-14.19647 -89.91099,-14.19647z" fill="#2f2e41" id="svg_18"/>
  <path d="m743.09318,406.6046l-7.92205,51.15945l19.99464,104.40554l26.50008,0c9.52046,-35.08081 10.01147,-81.18792 0.94643,-120.19679l-39.5191,-35.3682z" fill="#2f2e41" id="svg_19"/>
  <path d="m760.11878,137.79905l12.21628,-21.28718l13.11651,-10.52218l24.60722,-3.78573l6.8365,5.25675l0,0.00006a174.78134,174.78134 0 0 1 25.61953,127.42764l-6.718,36.38659l6.99229,37.14426a15.973,15.973 0 0 1 -15.56441,19.26426l-98.59342,-5.88647c-16.92742,0.06973 6.40385,-18.53765 8.94106,-35.274l22.54644,-148.724z" fill="#2f2e41" id="svg_20"/>
  <path d="m808.04428,211.10011l-24.401,-3.495c-8.25257,13.79947 -11.18524,50.52929 -11.18524,50.52929l-23.88019,56.75879a10.88284,10.88284 0 1 0 16.9659,8.17385l39.20884,-66.06488l3.29169,-45.90205z" fill="#ffb8b8" id="svg_21"/>
  <path d="m804.16042,143.3576l0,0a26.00744,26.00744 0 0 1 20.54548,34.354l-5.17814,14.67688s-2.60123,52.71669 -13.35094,65.19106l-26.65624,46.04293l-25.44465,-10.90507l14.5398,-46.04252s10.38881,-22.90141 5.75875,-33.68882c-2.83554,-6.60643 -2.678,-29.42413 0.11589,-47.98585a25.94087,25.94087 0 0 1 29.67005,-21.64261z" fill="#2f2e41" id="svg_22"/>
  <circle cx="791.30766" cy="63.91782" r="32.35595" fill="#ffb8b8" id="svg_23"/>
  <path d="m791.85572,95.35469a83.14547,83.14547 0 0 0 14.14423,-0.98847c4.63685,-0.94292 15.01,-8.5444 17.90164,-13.11862l0,0c2.14838,-3.3986 3.5222,-8.70577 4.29655,-12.5592a37.16836,37.16836 0 0 0 -6.50062,-29.50688a11.74272,11.74272 0 0 0 -4.743,-4.04811c-0.1699,-0.06644 -0.34474,-0.12532 -0.52142,-0.17565a14.48835,14.48835 0 0 1 -7.20722,-4.45969a11.95173,11.95173 0 0 0 -1.19812,-1.23308a17.84671,17.84671 0 0 0 -7.44581,-3.73871c-4.42617,-1.1846 -10.8318,-0.00873 -19.03857,3.49833c-4.12309,1.762 -8.63228,1.12435 -12.10113,0.37188a1.135,1.135 0 0 0 -1.06863,0.36612a8.0125,8.0125 0 0 1 -5.44572,2.1708c-1.23989,0.05444 -2.54072,1.7712 -4.11307,4.0099c-0.35677,0.50819 -0.7731,1.10129 -1.07338,1.462l-0.04031,-0.69306l-0.70126,0.77316a9.723,9.723 0 0 0 4.3897,15.84078a18.96112,18.96112 0 0 0 3.81365,0.60773c0.78051,0.07022 1.58788,0.14286 2.36157,0.2771a14.65916,14.65916 0 0 1 10.89332,9.51271a3.83363,3.83363 0 0 0 5.7863,1.86123a6.334,6.334 0 0 1 5.77163,-1.051a4.20487,4.20487 0 0 1 1.85856,2.10817a5.4796,5.4796 0 0 0 2.07928,2.42585c3.14221,1.62 3.35877,8.79693 2.23025,14.77975c-1.08781,5.76689 -3.2382,9.93873 -5.22919,10.145c-1.53277,0.15856 -1.708,0.26744 -1.819,0.53852l-0.09913,0.24267l0.17218,0.227a6.2608,6.2608 0 0 0 2.64672,0.35377z" fill="#2f2e41" id="svg_24"/>
  <path d="m835.26283,111.89605c-1.65317,6.56823 -9.67443,8.81638 -16.35945,9.90479c-11.14328,1.8142 -34.6904,3.55585 -34.6904,3.55585c-5.13,3.36594 -10.66362,6.85678 -16.799,6.8032s-12.58932,-5.41108 -11.3333,-11.41683c0.57229,-2.73666 2.54885,-4.94781 4.59295,-6.85515c14.37015,-13.40847 35.10183,-18.13813 54.74049,-17.35575c4.81391,0.1918 9.80369,0.74036 13.92145,3.2415c4.11765,2.50107 7.10315,7.45028 5.92726,12.12239z" fill="#f04545" id="svg_25"/>
  <path d="m734.57838,211.47599c0.1096,-4.64 1.88862,-9.057 3.6416,-13.3544l14.5449,-35.65574q7.16031,-17.55288 14.32053,-35.1059c1.24752,-3.05819 2.58726,-6.24513 5.12955,-8.35361c4.46389,-3.702 11.00143,-2.92286 16.71713,-1.94216l-3.58955,-0.07322c6.07275,4.30882 5.6308,13.80715 1.87346,20.23576c-3.75734,6.42853 -9.88126,11.12471 -14.23526,17.16513c-14.408,19.98853 -6.81656,49.98862 -21.24048,69.96561c-1.76267,2.44135 -4.16726,4.83825 -7.17664,4.9423s-5.91323,-3.55272 -4.10692,-5.962c-4.06573,-2.23845 -5.98792,-7.22187 -5.87832,-11.86177z" fill="#f04545" id="svg_26"/>
  <path d="m745.03551,313.81552c-0.53342,0.18207 -1.0652,0.37723 -1.59013,0.60988a20.40544,20.40544 0 0 0 -7.17947,5.293a14.91338,14.91338 0 0 0 -3.9,-0.5702a15.31924,15.31924 0 0 0 -11.77954,5.54648a8.97517,8.97517 0 0 0 -2.01147,3.98951a5.03938,5.03938 0 0 0 1.05856,4.25225c1.40274,1.54616 3.71137,1.76079 5.78316,1.74995c1.24947,-0.0065 2.49786,-0.06235 3.74318,-0.15658c-0.41289,1.47531 -0.79746,2.97414 -1.16348,4.4877c-6.15341,25.44578 10.54277,31.58985 31.22537,11.0036c6.52131,-6.49085 12.26568,-13.53686 10.91393,-21.66661c3.79842,-8.15424 5.17063,-18.27185 9.20307,-28.06289l-22.06594,-6.19063a196.06818,196.06818 0 0 0 -12.23724,19.71454z" fill="#f04545" id="svg_27"/>
  <path d="m735.36967,338.14021a10.18931,10.18931 0 0 1 -0.44691,-15.51164l-16.49681,-48.03231l12.16382,-7.82945l19.1764,57.192a10.175,10.175 0 0 1 -14.3965,14.18143l0,-0.00003z" fill="#ffb6b6" id="svg_28"/>
  <path d="m721.29122,205.61239c2.91369,12.325 7.26258,23.09107 6.67343,28.26141c-0.583,5.15621 5.71809,10.11086 3.71557,14.18658c-1.99846,4.08584 4.15371,4.52314 2.49021,11.0988c-1.66967,6.5898 -2.75411,7.99909 -1.34479,9.08359c1.41944,1.08045 8.91849,26.232 8.91849,26.232l-4.39869,1.612l-12.83516,4.6824l-30.16173,-49.609l0.0913,-60.89218l7.48912,-0.24037c1.79811,0.67416 3.7896,1.483 5.776,2.45769c6.06653,2.92859 12.20357,7.25728 13.58625,13.12708z" fill="#3f3d56" id="svg_29"/>
  <polygon points="610.225 591.987 594.541 591.986 587.079 531.488 610.228 531.489 610.225 591.987" fill="#ffb6b6" id="svg_30"/>
  <path d="m562.88436,615.12917a6.67142,6.67142 0 0 0 6.62912,6.64239l29.52613,0l0.91482,-1.89592l4.17638,-8.61786l1.61747,8.61786l0.358,1.89592l11.13687,0l-0.15909,-1.90919l-2.96984,-35.6117l-3.88465,-0.23864l-16.7849,-0.99437l-4.12337,-0.25191l0,10.63314c-3.12893,3.32783 -27.68322,15.90989 -26.43694,21.73028z" fill="#2f2e41" id="svg_31"/>
  <polygon points="793.979 574.914 780.337 582.654 743.992 533.718 764.126 522.295 793.979 574.914" fill="#ffb6b6" id="svg_32"/>
  <path d="m764.22408,618.40392a6.64,6.64 0 0 0 9.04205,2.50582l1.55127,-0.875l0.01328,0l24.11674,-13.69578l-0.769,-11.654l6.92076,8.167l5.10448,-2.90355l4.57411,-2.59865l-4.04383,-5.91312l-17.1959,-25.17739l-3.5002,1.72355l-15.10116,7.41132l-3.68575,1.81637l5.237,9.241c-1.07389,4.45484 -16.21486,27.49768 -12.26385,31.95243z" fill="#2f2e41" id="svg_33"/>
  <path d="m688.06249,295.01539c21.018,13.92772 41.82458,147.73789 36.364,145.55333l49.5399,92.32487l-70.51286,31.608l-46.36346,-160.98419l-7.72724,59.2422l10.303,94.01478l-45.57837,11.02235l-31.52544,-2.25182c8.19179,-112.06393 28.64481,-230.25676 45.59506,-275.97546l59.90541,5.44594z" fill="#2f2e41" id="svg_34"/>
  <path d="m704.02056,304.95289l79.53,189.31706c-22.21949,12.36234 -201.50007,-57.72705 -201.50007,-57.72705l42.47844,-142.68385l-6.75039,-91.75834a20.51045,20.51045 0 0 1 22.03428,-20.32431l15.96756,-11.82859l22.73138,0.78425l15.205,16.79529l9.08387,3.24576l7.05793,2.516c1.42684,1.28523 2.98437,2.76658 4.47655,4.40037l-11.16415,66.44057l-4.74885,19.86681l5.59845,20.95603z" fill="#3f3d56" id="svg_35"/>
  <path d="m704.78001,173.8628c-2.30615,-5.63488 -9.73005,-6.61577 -15.81738,-6.7345q-15.2205,-0.29678 -30.44094,-0.59346l-0.882,1.8392c-4.993,-2.34318 -10.3612,-4.74619 -15.81426,-3.91853s-10.51529,6.41574 -8.63407,11.60056c0.85718,2.3626 2.89721,4.079 4.95872,5.51649c14.49252,10.10531 33.54284,11.67867 50.91975,8.48582c4.2595,-0.78265 8.63015,-1.90515 11.97656,-4.65438c3.34638,-2.74917 5.37398,-7.53295 3.73362,-11.5412z" fill="#f04545" id="svg_36"/>
  <circle cx="653.39136" cy="534.70808" r="29.16615" fill="#ffb6b6" transform="rotate(-28.8079 -111.773 309.692)" id="svg_37"/>
  <path d="m702.78952,143.42693c-1.60743,6.13616 -4.57666,12.1234 -9.50059,16.11137c-4.93489,3.98806 -28.14343,13.4356 -30.10269,5.34786c1.31044,5.6496 0.52081,7.80818 -1.58712,9.82849c-0.36069,-0.48917 -0.74306,-0.95655 -1.13638,-1.41306a18.37413,18.37413 0 0 0 -5.12956,-4.115a59.0632,59.0632 0 0 0 0.73372,10.193a34.46137,34.46137 0 0 0 -2.47692,2.5332c-3.75339,-11.18737 -11.98062,-24.587 -6.02407,-34.77359c2.364,-4.04279 0.39276,-4.59646 -1.701,-5.06047c-3.65527,-0.81 -5.67117,-15.8116 -6.54083,-19.45817c-1.079,-4.57189 -1.50615,-9.83163 1.32713,-13.58563s9.99979,-3.91372 11.44885,0.55918l3.01754,-4.10294c3.89943,-8.5818 14.2511,-6.8653 23.61,-5.75624c9.359,1.09823 17.62082,7.67784 21.83551,16.10843c4.20385,8.43054 4.61041,18.46094 2.22641,27.58357z" fill="#2f2e41" id="svg_38"/>
  <path d="m731.28357,323.60205c-0.22171,0.31138 -0.4374,0.6293 -0.63473,0.96505a13.95787,13.95787 0 0 0 -1.87562,5.74859a10.12982,10.12982 0 0 0 -2.36232,1.23482a10.486,10.486 0 0 0 -4.30094,7.71248a6.07461,6.07461 0 0 0 0.45188,2.984a3.35542,3.35542 0 0 0 2.23892,1.91c1.37259,0.29068 2.72307,-0.50763 3.85567,-1.33552c0.68308,-0.49927 1.34632,-1.02515 1.9929,-1.57085c0.3487,0.97219 0.72212,1.946 1.11145,2.92058c6.54548,16.384 18.10273,13.12659 21.42454,-6.35892c1.04741,-6.14382 1.452,-12.28358 -2.4597,-16.20191c1.55684,-6.48251 -0.27935,-12.83024 -5.89255,-19.0279l-14.5219,5.36227c-2.10155,4.97148 -1.8488,10.18324 0.9724,15.65731z" fill="#f04545" id="svg_39"/>
  <circle cx="407.54963" cy="477.64705" r="5.64705" fill="#e6e7e8" id="svg_40"/>
  <circle cx="236.54963" cy="31.64705" r="5.64705" fill="#e6e7e8" id="svg_41"/>
  <circle cx="669.54963" cy="276.64705" r="5.64705" fill="#e6e7e8" id="svg_42"/>
  <circle cx="781.54963" cy="116.64705" r="5.64705" fill="#e6e7e8" id="svg_43"/>
  <circle cx="587.54963" cy="31.64705" r="5.64705" fill="#e6e7e8" id="svg_44"/>
  <circle cx="363.54963" cy="42.64705" r="5.64705" fill="#e6e7e8" id="svg_45"/>
  <circle cx="1275.54963" cy="558.64705" r="5.64705" fill="#e6e7e8" id="svg_46"/>
  <circle cx="230.54963" cy="552.64705" r="5.64705" fill="#e6e7e8" id="svg_47"/>
  <circle cx="507.54963" cy="490.64705" r="5.64705" fill="#e6e7e8" id="svg_48"/>
  <circle cx="773.54963" cy="243.64705" r="5.64705" fill="#e6e7e8" id="svg_49"/>
  <circle cx="807.54963" cy="169.64705" r="5.64705" fill="#e6e7e8" id="svg_50"/>
  <circle cx="667.54963" cy="48.64705" r="5.64705" fill="#e6e7e8" id="svg_51"/>
  <circle cx="755.54963" cy="5.64705" r="5.64705" fill="#e6e7e8" id="svg_52"/>
  <circle cx="700.54963" cy="441.64705" r="5.64705" fill="#e6e7e8" id="svg_53"/>
  <circle cx="871.54963" cy="486.64705" r="5.64705" fill="#e6e7e8" id="svg_54"/>
  <circle cx="852.54963" cy="310.64705" r="5.64705" fill="#e6e7e8" id="svg_55"/>
  <circle cx="752.54963" cy="590.64705" r="5.64705" fill="#e6e7e8" id="svg_56"/>
  <circle cx="684.54963" cy="371.64705" r="5.64705" fill="#e6e7e8" id="svg_57"/>
  <circle cx="623.54963" cy="387.64705" r="5.64705" fill="#e6e7e8" id="svg_58"/>
  <circle cx="610.54963" cy="522.64705" r="5.64705" fill="#e6e7e8" id="svg_59"/>
  <circle cx="783.54963" cy="356.64705" r="5.64705" fill="#e6e7e8" id="svg_60"/>
  <circle cx="842.54963" cy="243.64705" r="5.64705" fill="#e6e7e8" id="svg_61"/>
  <circle cx="629.54963" cy="209.64705" r="5.64705" fill="#e6e7e8" id="svg_62"/>
  <circle cx="709.54963" cy="234.64705" r="5.64705" fill="#e6e7e8" id="svg_63"/>
  <circle cx="92.54963" cy="515.64705" r="5.64705" fill="#e6e7e8" id="svg_64"/>
  <circle cx="119.54963" cy="339.64705" r="5.64705" fill="#fff" id="svg_65"/>
  <circle cx="295.54963" cy="496.64705" r="5.64705" fill="#fff" id="svg_66"/>
  <circle cx="295.54963" cy="457.64705" r="5.64705" fill="#fff" id="svg_67"/>
  <circle cx="504.54963" cy="287.64705" r="5.64705" fill="#fff" id="svg_68"/>
  <circle cx="434.54963" cy="177.64705" r="5.64705" fill="#fff" id="svg_69"/>
  <circle cx="171.54963" cy="235.64705" r="5.64705" fill="#fff" id="svg_70"/>
  <circle cx="174.54963" cy="316.64705" r="5.64705" fill="#fff" id="svg_71"/>
  <circle cx="386.54963" cy="350.64705" r="5.64705" fill="#fff" id="svg_72"/>
  <circle cx="354.54963" cy="147.64705" r="5.64705" fill="#e6e7e8" id="svg_73"/>
  <circle cx="275.54963" cy="278.64705" r="5.64705" fill="#e6e7e8" id="svg_74"/>
  <circle cx="85.54963" cy="160.64705" r="5.64705" fill="#e6e7e8" id="svg_75"/>
  <circle cx="528.54963" cy="115.64705" r="5.64705" fill="#e6e7e8" id="svg_76"/>
  <circle cx="835.10525" cy="36.30823" r="6.45061" fill="#f04545" id="svg_77"/>
  <path d="m780.49161,28.06738c-2.348,-4.10692 -8.80683,-4.62085 -12.2696,-1.39766a2.5915,2.5915 0 0 0 -0.77146,1.07262a3.04129,3.04129 0 0 0 0.50264,2.231a285.25674,285.25674 0 0 0 41.95815,59.77966c1.51226,1.65444 3.14622,3.35691 5.28847,4.01638a6.46787,6.46787 0 0 0 6.29135,-10.933c4.59633,0.79834 9.20217,-1.76168 12.387,-5.17053c5.72789,-6.13077 7.98614,-15.07822 6.74011,-23.37535s-5.757,-15.90786 -11.81871,-21.70877a35.37267,35.37267 0 0 0 -11.58346,-7.62c-11.41562,-4.39575 -24.18607,-1.02334 -35.93666,2.37706l3.02013,0.396" fill="#f04545" id="svg_78"/>
  <circle cx="720.83103" cy="121.83527" r="6.45061" fill="#f04545" id="svg_79"/>
  <path d="m652.05142,105.88898c-3.38432,-3.30547 -9.73646,-2.02826 -12.18245,2.02105a2.59171,2.59171 0 0 0 -0.4477,1.24307a3.04131,3.04131 0 0 0 1.09525,2.00758c16.84044,17.67349 12.96392,45.1691 33.74466,57.97976c1.908,1.17624 3.94627,2.36529 6.18724,2.41193a6.66919,6.66919 0 0 0 6.41033,-4.90175c0.7027,-2.81836 8.65227,-2.63 6.05981,-3.94c4.639,-0.49288 21.94758,-19.61542 24.07537,-23.767c3.8268,-7.46664 3.54449,-16.69035 0.07064,-24.32758s-9.8992,-13.71892 -17.31946,-17.63488a35.37271,35.37271 0 0 0 -13.22916,-4.15087c-12.18349,-1.09629 -18.23,0.3876 -28.59739,6.88038" fill="#f04545" id="svg_80"/>
  <circle cx="793.54963" cy="40.64705" r="5.64705" fill="#e6e7e8" id="svg_81"/>
  <circle cx="667.54963" cy="121.64705" r="5.64705" fill="#e6e7e8" id="svg_82"/>
  <circle cx="142.54963" cy="58.64705" r="5.64705" fill="#e6e7e8" id="svg_83"/>
  <circle cx="276.54963" cy="89.64705" r="5.64705" fill="#e6e7e8" id="svg_84"/>
  <circle cx="1135.54963" cy="464.64705" r="5.64705" fill="#e6e7e8" id="svg_85"/>
  <circle cx="1169.54963" cy="602.64705" r="5.64705" fill="#e6e7e8" id="svg_86"/>
  <circle cx="1047.54963" cy="344.64705" r="5.64705" fill="#e6e7e8" id="svg_87"/>
  <circle cx="1042.54963" cy="439.64705" r="5.64705" fill="#e6e7e8" id="svg_88"/>
  <circle cx="1007.54963" cy="565.64705" r="5.64705" fill="#e6e7e8" id="svg_89"/>
  <circle cx="924.54963" cy="645.64705" r="5.64705" fill="#e6e7e8" id="svg_90"/>
  <circle cx="1037.54963" cy="662.64705" r="5.64705" fill="#e6e7e8" id="svg_91"/>
  <circle cx="895.54963" cy="420.64705" r="5.64705" fill="#e6e7e8" id="svg_92"/>
  <circle cx="1237.54963" cy="468.64705" r="5.64705" fill="#e6e7e8" id="svg_93"/>
  <circle cx="1069.54963" cy="205.64705" r="5.64705" fill="#e6e7e8" id="svg_94"/>
  <circle cx="929.54963" cy="111.64705" r="5.64705" fill="#e6e7e8" id="svg_95"/>
  <circle cx="963.54963" cy="249.64705" r="5.64705" fill="#e6e7e8" id="svg_96"/>
  <circle cx="1031.54963" cy="115.64705" r="5.64705" fill="#e6e7e8" id="svg_97"/>
  <circle cx="1253.54963" cy="260.64705" r="5.64705" fill="#e6e7e8" id="svg_98"/>
  <circle cx="1113.54963" cy="166.64705" r="5.64705" fill="#e6e7e8" id="svg_99"/>
  <circle cx="1147.54963" cy="304.64705" r="5.64705" fill="#e6e7e8" id="svg_100"/>
  <circle cx="1215.54963" cy="170.64705" r="5.64705" fill="#e6e7e8" id="svg_101"/>
 </g>

</svg>